<svg xmlns="http://www.w3.org/2000/svg" width="980" height="330">
<rect width="100%" height="100%" fill="white"/>
<text x="490.0" y="25" text-anchor="middle" font-size="22" font-weight="700">007 L2/3 IT CTX Glut | subclass=01 total=574</text>
<text x="250" y="45" text-anchor="middle" font-size="20" font-weight="700">true_data</text>
<path d="M 250.000 20.000 A 120.000 120.000 0 0 1 321.170 43.383 L 297.447 75.589 A 80.000 80.000 0 0 0 250.000 60.000 Z" fill="#4EA5D9" stroke="white" stroke-width="1.5"/>
<path d="M 321.170 43.383 A 120.000 120.000 0 1 1 250.000 20.000 L 250.000 60.000 A 80.000 80.000 0 1 0 297.447 75.589 Z" fill="#D99A17" stroke="white" stroke-width="1.5"/>
<path d="M 250.000 66.000 A 74.000 74.000 0 1 1 249.999 66.000 L 249.999 102.000 A 38.000 38.000 0 1 0 250.000 102.000 Z" fill="#2A9D75" stroke="white" stroke-width="1.3"/>
<path d="M 250.000 66.000 A 74.000 74.000 0 0 1 250.000 66.000 L 250.000 102.000 A 38.000 38.000 0 0 0 250.000 102.000 Z" fill="#8A8A8A" stroke="white" stroke-width="1.3"/>
<text x="250" y="215" text-anchor="middle" font-size="15">Clustered: 58 (10.1%)</text>
<text x="250" y="235" text-anchor="middle" font-size="15">Non-clustered: 516 (89.9%)</text>
<text x="250" y="255" text-anchor="middle" font-size="15">Partner: 58 (100%)</text>
<text x="250" y="275" text-anchor="middle" font-size="15">Cluster-only: 0 (0%)</text>
<text x="730" y="45" text-anchor="middle" font-size="20" font-weight="700">sample_mean (n=2)</text>
<path d="M 730.000 20.000 A 120.000 120.000 0 0 1 842.937 180.562 L 805.291 167.041 A 80.000 80.000 0 0 0 730.000 60.000 Z" fill="#4EA5D9" stroke="white" stroke-width="1.5"/>
<path d="M 842.937 180.562 A 120.000 120.000 0 1 1 730.000 20.000 L 730.000 60.000 A 80.000 80.000 0 1 0 805.291 167.041 Z" fill="#D99A17" stroke="white" stroke-width="1.5"/>
<path d="M 730.000 66.000 A 74.000 74.000 0 1 1 675.305 90.156 L 701.913 114.405 A 38.000 38.000 0 1 0 730.000 102.000 Z" fill="#2A9D75" stroke="white" stroke-width="1.3"/>
<path d="M 675.305 90.156 A 74.000 74.000 0 0 1 730.000 66.000 L 730.000 102.000 A 38.000 38.000 0 0 0 701.913 114.405 Z" fill="#8A8A8A" stroke="white" stroke-width="1.3"/>
<text x="730" y="215" text-anchor="middle" font-size="15">Clustered: 175 (30.5%)</text>
<text x="730" y="235" text-anchor="middle" font-size="15">Non-clustered: 399 (69.5%)</text>
<text x="730" y="255" text-anchor="middle" font-size="15">Partner: 151.8 (86.8%)</text>
<text x="730" y="275" text-anchor="middle" font-size="15">Cluster-only: 23.2 (13.2%)</text>
<rect x="390" y="65" width="16" height="16" fill="#4EA5D9"/><text x="412" y="78" font-size="14">clustered</text>
<rect x="390" y="90" width="16" height="16" fill="#D99A17"/><text x="412" y="103" font-size="14">non-clustered</text>
<rect x="390" y="115" width="16" height="16" fill="#2A9D75"/><text x="412" y="128" font-size="14">partner</text>
<rect x="390" y="140" width="16" height="16" fill="#8A8A8A"/><text x="412" y="153" font-size="14">cluster-only</text>
</svg>