<svg xmlns="http://www.w3.org/2000/svg" width="1435" height="700">
<rect width="100%" height="100%" fill="white"/>
<text x="717.5" y="35" text-anchor="middle" font-size="24" font-family="sans-serif" font-weight="bold">True mean vs random maximum cluster size by subclass (part 6/6)</text>
<line x1="85" y1="470.0" x2="1400" y2="470.0" stroke="#dddddd"/>
<text x="77" y="475.0" text-anchor="end" font-size="12" font-family="sans-serif">0</text>
<line x1="85" y1="390.0" x2="1400" y2="390.0" stroke="#dddddd"/>
<text x="77" y="395.0" text-anchor="end" font-size="12" font-family="sans-serif">1167</text>
<line x1="85" y1="310.0" x2="1400" y2="310.0" stroke="#dddddd"/>
<text x="77" y="315.0" text-anchor="end" font-size="12" font-family="sans-serif">2333</text>
<line x1="85" y1="230.0" x2="1400" y2="230.0" stroke="#dddddd"/>
<text x="77" y="235.0" text-anchor="end" font-size="12" font-family="sans-serif">3500</text>
<line x1="85" y1="150.0" x2="1400" y2="150.0" stroke="#dddddd"/>
<text x="77" y="155.0" text-anchor="end" font-size="12" font-family="sans-serif">4666</text>
<line x1="85" y1="70.0" x2="1400" y2="70.0" stroke="#dddddd"/>
<text x="77" y="75.0" text-anchor="end" font-size="12" font-family="sans-serif">5833</text>
<line x1="119.6" y1="466.6" x2="119.6" y2="452.0" stroke="#d97820" stroke-width="2"/>
<rect x="104.6" y="459.0" width="30.0" height="3.8" fill="#f5ad63" stroke="#b85c00"/>
<line x1="104.6" y1="460.9" x2="134.6" y2="460.9" stroke="#703500" stroke-width="2"/>
<polygon points="119.6,456.7 125.6,462.7 119.6,468.7 113.6,462.7" fill="#2878b5"/>
<text x="119.6" y="452.7" text-anchor="middle" font-size="11" font-family="sans-serif">ns</text>
<text transform="translate(123.6,482) rotate(55)" text-anchor="start" font-size="11" font-family="sans-serif">316 Bergmann NN</text>
<line x1="188.8" y1="442.0" x2="188.8" y2="359.9" stroke="#d97820" stroke-width="2"/>
<rect x="173.8" y="418.3" width="30.0" height="13.6" fill="#f5ad63" stroke="#b85c00"/>
<line x1="173.8" y1="426.6" x2="203.8" y2="426.6" stroke="#703500" stroke-width="2"/>
<polygon points="188.8,456.9 194.8,462.9 188.8,468.9 182.8,462.9" fill="#2878b5"/>
<text x="188.8" y="452.9" text-anchor="middle" font-size="11" font-family="sans-serif">**</text>
<text transform="translate(192.8,482) rotate(55)" text-anchor="start" font-size="11" font-family="sans-serif">028 L6b/CT ENT Glut</text>
<line x1="258.0" y1="455.3" x2="258.0" y2="427.3" stroke="#d97820" stroke-width="2"/>
<rect x="243.0" y="436.6" width="30.0" height="4.7" fill="#f5ad63" stroke="#b85c00"/>
<line x1="243.0" y1="439.6" x2="273.0" y2="439.6" stroke="#703500" stroke-width="2"/>
<polygon points="258.0,456.9 264.0,462.9 258.0,468.9 252.0,462.9" fill="#2878b5"/>
<text x="258.0" y="452.9" text-anchor="middle" font-size="11" font-family="sans-serif">**</text>
<text transform="translate(262.0,482) rotate(55)" text-anchor="start" font-size="11" font-family="sans-serif">066 NDB-SI-ant Prdm12 Gaba</text>
<line x1="327.2" y1="458.8" x2="327.2" y2="420.9" stroke="#d97820" stroke-width="2"/>
<rect x="312.2" y="441.2" width="30.0" height="11.8" fill="#f5ad63" stroke="#b85c00"/>
<line x1="312.2" y1="448.4" x2="342.2" y2="448.4" stroke="#703500" stroke-width="2"/>
<polygon points="327.2,457.3 333.2,463.3 327.2,469.3 321.2,463.3" fill="#2878b5"/>
<text x="327.2" y="453.3" text-anchor="middle" font-size="11" font-family="sans-serif">*</text>
<text transform="translate(331.2,482) rotate(55)" text-anchor="start" font-size="11" font-family="sans-serif">011 L2 IT ENT-po Glut</text>
<line x1="396.4" y1="465.3" x2="396.4" y2="455.5" stroke="#d97820" stroke-width="2"/>
<rect x="381.4" y="458.1" width="30.0" height="3.2" fill="#f5ad63" stroke="#b85c00"/>
<line x1="381.4" y1="459.4" x2="411.4" y2="459.4" stroke="#703500" stroke-width="2"/>
<polygon points="396.4,457.3 402.4,463.3 396.4,469.3 390.4,463.3" fill="#2878b5"/>
<text x="396.4" y="453.3" text-anchor="middle" font-size="11" font-family="sans-serif">ns</text>
<text transform="translate(400.4,482) rotate(55)" text-anchor="start" font-size="11" font-family="sans-serif">121 MEA-BST Otp Zic2 Glut</text>
<line x1="465.7" y1="461.3" x2="465.7" y2="441.9" stroke="#d97820" stroke-width="2"/>
<rect x="450.7" y="451.9" width="30.0" height="3.3" fill="#f5ad63" stroke="#b85c00"/>
<line x1="450.7" y1="453.7" x2="480.7" y2="453.7" stroke="#703500" stroke-width="2"/>
<polygon points="465.7,457.7 471.7,463.7 465.7,469.7 459.7,463.7" fill="#2878b5"/>
<text x="465.7" y="453.7" text-anchor="middle" font-size="11" font-family="sans-serif">**</text>
<text transform="translate(469.7,482) rotate(55)" text-anchor="start" font-size="11" font-family="sans-serif">016 CA1-ProS Glut</text>
<line x1="534.9" y1="465.6" x2="534.9" y2="451.4" stroke="#d97820" stroke-width="2"/>
<rect x="519.9" y="460.5" width="30.0" height="1.9" fill="#f5ad63" stroke="#b85c00"/>
<line x1="519.9" y1="461.4" x2="549.9" y2="461.4" stroke="#703500" stroke-width="2"/>
<polygon points="534.9,457.7 540.9,463.7 534.9,469.7 528.9,463.7" fill="#2878b5"/>
<text x="534.9" y="453.7" text-anchor="middle" font-size="11" font-family="sans-serif">ns</text>
<text transform="translate(538.9,482) rotate(55)" text-anchor="start" font-size="11" font-family="sans-serif">204 SC Otx2 Gcnt4 Gaba</text>
<line x1="604.1" y1="468.4" x2="604.1" y2="443.5" stroke="#d97820" stroke-width="2"/>
<rect x="589.1" y="450.1" width="30.0" height="8.4" fill="#f5ad63" stroke="#b85c00"/>
<line x1="589.1" y1="452.4" x2="619.1" y2="452.4" stroke="#703500" stroke-width="2"/>
<polygon points="604.1,458.0 610.1,464.0 604.1,470.0 598.1,464.0" fill="#2878b5"/>
<text x="604.1" y="454.0" text-anchor="middle" font-size="11" font-family="sans-serif">ns</text>
<text transform="translate(608.1,482) rotate(55)" text-anchor="start" font-size="11" font-family="sans-serif">074 MEA-BST Lhx6 Sp9 Gaba</text>
<line x1="673.3" y1="467.7" x2="673.3" y2="462.4" stroke="#d97820" stroke-width="2"/>
<rect x="658.3" y="464.1" width="30.0" height="1.9" fill="#f5ad63" stroke="#b85c00"/>
<line x1="658.3" y1="464.7" x2="688.3" y2="464.7" stroke="#703500" stroke-width="2"/>
<polygon points="673.3,458.3 679.3,464.3 673.3,470.3 667.3,464.3" fill="#2878b5"/>
<text x="673.3" y="454.3" text-anchor="middle" font-size="11" font-family="sans-serif">ns</text>
<text transform="translate(677.3,482) rotate(55)" text-anchor="start" font-size="11" font-family="sans-serif">117 LHA Barhl2 Glut</text>
<line x1="742.5" y1="467.6" x2="742.5" y2="462.3" stroke="#d97820" stroke-width="2"/>
<rect x="727.5" y="464.2" width="30.0" height="1.0" fill="#f5ad63" stroke="#b85c00"/>
<line x1="727.5" y1="464.9" x2="757.5" y2="464.9" stroke="#703500" stroke-width="2"/>
<polygon points="742.5,458.3 748.5,464.3 742.5,470.3 736.5,464.3" fill="#2878b5"/>
<text x="742.5" y="454.3" text-anchor="middle" font-size="11" font-family="sans-serif">ns</text>
<text transform="translate(746.5,482) rotate(55)" text-anchor="start" font-size="11" font-family="sans-serif">164 APN C1ql4 Glut</text>
<line x1="811.7" y1="466.3" x2="811.7" y2="459.7" stroke="#d97820" stroke-width="2"/>
<rect x="796.7" y="462.4" width="30.0" height="1.3" fill="#f5ad63" stroke="#b85c00"/>
<line x1="796.7" y1="463.2" x2="826.7" y2="463.2" stroke="#703500" stroke-width="2"/>
<polygon points="811.7,458.4 817.7,464.4 811.7,470.4 805.7,464.4" fill="#2878b5"/>
<text x="811.7" y="454.4" text-anchor="middle" font-size="11" font-family="sans-serif">ns</text>
<text transform="translate(815.7,482) rotate(55)" text-anchor="start" font-size="11" font-family="sans-serif">317 Astro-CB NN</text>
<line x1="880.9" y1="467.7" x2="880.9" y2="459.0" stroke="#d97820" stroke-width="2"/>
<rect x="865.9" y="461.4" width="30.0" height="3.6" fill="#f5ad63" stroke="#b85c00"/>
<line x1="865.9" y1="463.6" x2="895.9" y2="463.6" stroke="#703500" stroke-width="2"/>
<polygon points="880.9,458.4 886.9,464.4 880.9,470.4 874.9,464.4" fill="#2878b5"/>
<text x="880.9" y="454.4" text-anchor="middle" font-size="11" font-family="sans-serif">ns</text>
<text transform="translate(884.9,482) rotate(55)" text-anchor="start" font-size="11" font-family="sans-serif">209 SCs Pax7 Nfia Gaba</text>
<line x1="950.1" y1="460.3" x2="950.1" y2="423.3" stroke="#d97820" stroke-width="2"/>
<rect x="935.1" y="446.9" width="30.0" height="5.3" fill="#f5ad63" stroke="#b85c00"/>
<line x1="935.1" y1="449.8" x2="965.1" y2="449.8" stroke="#703500" stroke-width="2"/>
<polygon points="950.1,458.4 956.1,464.4 950.1,470.4 944.1,464.4" fill="#2878b5"/>
<text x="950.1" y="454.4" text-anchor="middle" font-size="11" font-family="sans-serif">*</text>
<text transform="translate(954.1,482) rotate(55)" text-anchor="start" font-size="11" font-family="sans-serif">036 HPF CR Glut</text>
<line x1="1019.3" y1="461.6" x2="1019.3" y2="449.0" stroke="#d97820" stroke-width="2"/>
<rect x="1004.3" y="455.3" width="30.0" height="2.7" fill="#f5ad63" stroke="#b85c00"/>
<line x1="1004.3" y1="456.6" x2="1034.3" y2="456.6" stroke="#703500" stroke-width="2"/>
<polygon points="1019.3,458.9 1025.3,464.9 1019.3,470.9 1013.3,464.9" fill="#2878b5"/>
<text x="1019.3" y="454.9" text-anchor="middle" font-size="11" font-family="sans-serif">**</text>
<text transform="translate(1023.3,482) rotate(55)" text-anchor="start" font-size="11" font-family="sans-serif">321 Astroependymal NN</text>
<line x1="1088.6" y1="466.0" x2="1088.6" y2="456.6" stroke="#d97820" stroke-width="2"/>
<rect x="1073.6" y="460.3" width="30.0" height="2.6" fill="#f5ad63" stroke="#b85c00"/>
<line x1="1073.6" y1="461.3" x2="1103.6" y2="461.3" stroke="#703500" stroke-width="2"/>
<polygon points="1088.6,459.4 1094.6,465.4 1088.6,471.4 1082.6,465.4" fill="#2878b5"/>
<text x="1088.6" y="455.4" text-anchor="middle" font-size="11" font-family="sans-serif">*</text>
<text transform="translate(1092.6,482) rotate(55)" text-anchor="start" font-size="11" font-family="sans-serif">073 MEA-BST Sox6 Gaba</text>
<line x1="1157.8" y1="468.0" x2="1157.8" y2="460.1" stroke="#d97820" stroke-width="2"/>
<rect x="1142.8" y="462.5" width="30.0" height="2.3" fill="#f5ad63" stroke="#b85c00"/>
<line x1="1142.8" y1="463.4" x2="1172.8" y2="463.4" stroke="#703500" stroke-width="2"/>
<polygon points="1157.8,459.5 1163.8,465.5 1157.8,471.5 1151.8,465.5" fill="#2878b5"/>
<text x="1157.8" y="455.5" text-anchor="middle" font-size="11" font-family="sans-serif">ns</text>
<text transform="translate(1161.8,482) rotate(55)" text-anchor="start" font-size="11" font-family="sans-serif">129 VMH Nr5a1 Glut</text>
<line x1="1227.0" y1="468.9" x2="1227.0" y2="461.8" stroke="#d97820" stroke-width="2"/>
<rect x="1212.0" y="463.8" width="30.0" height="1.6" fill="#f5ad63" stroke="#b85c00"/>
<line x1="1212.0" y1="464.5" x2="1242.0" y2="464.5" stroke="#703500" stroke-width="2"/>
<polygon points="1227.0,459.5 1233.0,465.5 1227.0,471.5 1221.0,465.5" fill="#2878b5"/>
<text x="1227.0" y="455.5" text-anchor="middle" font-size="11" font-family="sans-serif">ns</text>
<text transform="translate(1231.0,482) rotate(55)" text-anchor="start" font-size="11" font-family="sans-serif">095 DMH Prdm13 Gaba</text>
<line x1="1296.2" y1="468.8" x2="1296.2" y2="461.4" stroke="#d97820" stroke-width="2"/>
<rect x="1281.2" y="463.7" width="30.0" height="2.0" fill="#f5ad63" stroke="#b85c00"/>
<line x1="1281.2" y1="464.7" x2="1311.2" y2="464.7" stroke="#703500" stroke-width="2"/>
<polygon points="1296.2,460.6 1302.2,466.6 1296.2,472.6 1290.2,466.6" fill="#2878b5"/>
<text x="1296.2" y="456.6" text-anchor="middle" font-size="11" font-family="sans-serif">ns</text>
<text transform="translate(1300.2,482) rotate(55)" text-anchor="start" font-size="11" font-family="sans-serif">324 Hypendymal NN</text>
<line x1="1365.4" y1="469.7" x2="1365.4" y2="469.0" stroke="#d97820" stroke-width="2"/>
<rect x="1350.4" y="469.3" width="30.0" height="1.0" fill="#f5ad63" stroke="#b85c00"/>
<line x1="1350.4" y1="469.5" x2="1380.4" y2="469.5" stroke="#703500" stroke-width="2"/>
<polygon points="1365.4,463.6 1371.4,469.6 1365.4,475.6 1359.4,469.6" fill="#2878b5"/>
<text x="1365.4" y="459.6" text-anchor="middle" font-size="11" font-family="sans-serif">ns</text>
<text transform="translate(1369.4,482) rotate(55)" text-anchor="start" font-size="11" font-family="sans-serif">058 PAL-STR Gaba-Chol</text>
<text transform="translate(20,270.0) rotate(-90)" text-anchor="middle" font-size="15" font-family="sans-serif">Cluster size (total_cell_num)</text>
<rect x="1135" y="50" width="14" height="14" fill="#f5ad63" stroke="#b85c00"/><text x="1155" y="62" font-size="12" font-family="sans-serif">random replicate maxima</text>
<polygon points="1280,50 1286,56 1280,62 1274,56" fill="#2878b5"/><text x="1292" y="61" font-size="12" font-family="sans-serif">true</text>
</svg>